Coordinates
version=1
nRows=34
nColumns=33
inDegrees=yes

Units are S.I. units (second, meters, Newtons, ...)
Angles are in degrees.

endheader
time	ground_thorax_rot_x	ground_thorax_rot_y	ground_thorax_rot_z	ground_thorax_tx	ground_thorax_ty	ground_thorax_tz	clav_prot_r	clav_elev_r	scapula_abduction_r	scapula_elevation_r	scapula_upward_rot_r	scapula_winging_r	shoulder_elv_r	plane_of_elev_r	axial_rot_r	elbow_flexion_r	pro_sup_r	wrist_flex_r	wrist_dev_r	clav_prot_l	clav_elev_l	scapula_abduction_l	scapula_elevation_l	scapula_upward_rot_l	scapula_winging_l	shoulder_elv_l	plane_of_elev_l	axial_rot_l	elbow_flexion_l	pro_sup_l	wrist_flex_l	wrist_dev_l	
5.6800	-39.587477	-9.340836	14.729574	-164.336575	809.704278	8.245238	4.370656	-45.000000	39.990096	-45.000000	-22.171213	2421.094943	-2812.334758	31.216210	65.444365	371.204682	1.381765	17.925569	12.210110	17.704102	39.434640	-41.035535	-44.998358	-41.278398	-638.346960	1703.989715	135.511812	165.238758	741.528743	149.247654	-3.031677	-11.222255	
5.6900	-39.654085	-9.484527	14.692646	-160.183360	807.065754	8.182852	4.174671	-45.000000	40.091387	-45.000000	-21.605298	2421.307159	-2812.754000	31.039075	65.702135	371.115058	1.699239	17.790335	12.429144	17.959122	39.561638	-41.210980	-44.997060	-41.081698	-638.720375	1703.849971	135.405689	166.181998	741.139829	144.308772	-2.933671	-11.827982	
5.7000	-39.721785	-9.608756	14.629230	-155.996861	804.393952	8.130056	3.980940	-45.000000	40.217537	-45.000000	-20.999977	2421.505034	-2813.184827	30.853990	65.974503	371.029523	2.182870	17.671156	12.620891	18.211680	39.688277	-41.383342	-44.994730	-40.892203	-639.095851	1703.728138	135.253330	167.412326	740.536618	136.859717	-2.595782	-12.584054	
5.7100	-39.793821	-9.677868	14.482704	-151.790005	801.703021	8.087629	3.797842	-45.000000	40.442069	-45.000000	-20.197346	2421.643002	-2813.646369	30.648008	66.322980	370.947628	2.888970	17.577448	12.765269	18.396769	39.812275	-41.543381	-44.990569	-40.674621	-639.464536	1703.655339	134.997083	169.216798	739.581768	125.574839	-1.889703	-13.609782	
5.7200	-39.860377	-9.741492	14.325257	-147.575492	799.009334	8.056647	3.651465	-45.000000	40.694414	-45.000000	-19.386805	2421.762812	-2814.113741	30.445480	66.678705	370.868226	3.772489	17.503533	12.875430	18.549398	39.920910	-41.688681	-44.983082	-40.463030	-639.826813	1703.579657	134.696026	171.326424	738.015260	108.104055	-0.438178	-14.766229	
5.7300	-39.913045	-9.840846	14.211426	-143.365487	796.330991	8.038516	3.547224	-45.000000	40.927928	-45.000000	-18.697280	2421.894764	-2814.565366	30.256092	67.012689	370.789161	4.765141	17.445727	12.955029	18.664841	40.009323	-41.815771	-44.969762	-40.298899	-640.171436	1703.491466	134.376852	173.521103	735.982883	86.304751	1.595883	-15.949781	
5.7400	-39.948598	-10.013734	14.203997	-139.171411	793.687410	8.034966	3.487003	-45.000000	41.058543	-45.000000	-18.323793	2422.091242	-2814.981708	30.102439	67.245457	370.700869	5.751200	17.388620	13.024353	18.795502	40.069294	-41.933354	-44.945647	-40.209770	-640.493961	1703.345447	134.125695	175.279426	733.721644	62.979055	3.987356	-16.916238	
5.7500	-39.970971	-10.209213	14.239699	-135.004026	791.098625	8.047883	3.430430	-45.000000	41.143229	-45.000000	-18.089008	2422.317424	-2815.373387	29.960555	67.441055	370.601504	6.717086	17.333218	13.075831	18.927755	40.114747	-42.056353	-44.903164	-40.157697	-640.797160	1703.171745	133.938331	176.611318	731.672219	42.710941	6.165607	-17.662678	
5.7600	-39.980883	-10.402384	14.292212	-130.873429	788.584989	8.079132	3.383508	-45.000000	41.193863	-45.000000	-17.962091	2422.567781	-2815.740344	29.837000	67.571751	370.489192	7.638221	17.273550	13.116635	19.083744	40.143914	-42.197627	-44.825074	-40.082460	-641.066669	1702.928735	133.866574	177.205527	729.982344	27.066426	7.998135	-18.050992	
5.7700	-39.979392	-10.527944	14.276040	-126.789428	786.166541	8.130227	3.310017	-45.000000	41.296886	-45.000000	-17.699399	2422.789566	-2816.091834	29.703469	67.712316	370.369853	8.561260	17.218195	13.132844	19.242072	40.169230	-42.374659	-44.690745	-39.922905	-641.288822	1702.656570	133.873637	177.268073	728.936248	18.704674	9.079238	-18.193758	
5.7800	-39.965038	-10.462847	14.031848	-122.761527	783.862478	8.202071	3.207158	-45.000000	41.606589	-45.000000	-16.932394	2422.891750	-2816.446201	29.543541	67.907641	370.248151	9.588184	17.175565	13.113456	19.358428	40.181126	-42.619115	-44.434623	-39.502757	-641.410768	1702.347565	133.935450	176.959895	728.421960	16.227850	9.536635	-18.171246	
5.7900	-39.935176	-10.166190	13.501965	-118.799660	781.691023	8.294762	3.067742	-45.000000	42.189100	-45.000000	-15.494223	2422.829168	-2816.807799	29.346998	68.211658	370.132369	10.791107	17.155434	13.043635	19.402889	40.185261	-42.937859	-44.037864	-38.770118	-641.412995	1702.036386	133.997596	176.640833	728.261419	17.432594	9.521356	-18.179033	
5.8000	-39.881682	-9.689798	12.764107	-114.914261	779.668913	8.407548	2.927650	-45.000000	42.950105	-45.000000	-13.594252	2422.651448	-2817.156575	29.142921	68.569140	370.021131	12.144225	17.151359	12.932098	19.387350	40.152740	-43.322171	-43.498978	-37.758197	-641.288354	1701.695866	134.082368	176.206496	728.111504	18.696660	9.483844	-18.190994	
5.8100	-39.800219	-9.184828	12.023388	-111.117053	777.810994	8.538889	2.787333	-45.000000	43.681954	-45.000000	-11.697849	2422.477413	-2817.454758	28.955831	68.903755	369.912639	13.526517	17.151975	12.797675	19.394325	40.066782	-43.739013	-42.882660	-36.676295	-641.094596	1701.351926	134.212109	175.592767	727.976885	19.915716	9.406995	-18.203476	
5.8200	-39.691357	-8.702089	11.339952	-107.421046	776.129204	8.686656	2.648553	-45.000000	44.314616	-45.000000	-9.951983	2422.350271	-2817.702504	28.794538	69.218881	369.802272	14.899279	17.151112	12.642430	19.399201	39.925790	-44.149996	-42.226200	-35.597000	-640.869565	1701.025494	134.370135	174.847386	727.853073	21.048165	9.304838	-18.211823	
5.8300	-39.562268	-8.351537	10.839849	-103.840788	774.632177	8.848443	2.518492	-45.000000	44.738466	-45.000000	-8.644955	2422.338022	-2817.893396	28.672934	69.476394	369.693968	16.197061	17.143652	12.475206	19.430532	39.741836	-44.498764	-41.610660	-34.668425	-640.677573	1700.735957	134.545091	173.996475	727.736481	22.043838	9.176774	-18.209530	
5.8400	-39.417512	-8.181635	10.567356	-100.392360	773.324287	9.021819	2.437668	-45.000000	44.955125	-45.000000	-7.858265	2422.425112	-2818.056724	28.609242	69.700449	369.584006	17.421157	17.126968	12.282460	19.392796	39.538816	-44.751921	-41.074807	-33.980154	-640.531237	1700.504005	134.689404	173.121919	727.621896	22.911922	9.039362	-18.195092	
5.8500	-39.268640	-8.163725	10.474983	-97.092590	772.205028	9.204482	2.389002	-45.000000	45.000000	-45.000000	-7.507605	2422.603485	-2818.191586	28.590076	69.849539	369.485179	18.580242	17.106952	12.080663	19.331292	39.322127	-44.902721	-40.637851	-33.498603	-640.441043	1700.325476	134.785945	172.291382	727.513753	23.673404	8.895585	-18.172651	
5.8600	-39.116657	-8.189493	10.417497	-93.958866	771.268710	9.394249	2.356946	-45.000000	45.000000	-45.000000	-7.287012	2422.805519	-2818.313703	28.600260	69.947714	369.396491	19.743380	17.089301	11.868317	19.187491	39.121784	-44.974736	-40.256837	-33.069738	-640.374373	1700.183853	134.823092	171.571867	727.411738	24.392674	8.759722	-18.150133	
5.8700	-38.971143	-8.184506	10.311037	-91.007659	770.504594	9.588947	2.299069	-45.000000	45.000000	-45.000000	-7.020238	2423.008884	-2818.420267	28.617341	69.964970	369.320947	20.925773	17.075575	11.661705	19.024985	38.951749	-44.998605	-39.912627	-32.579668	-640.337025	1700.063090	134.837648	170.983600	727.322563	25.092016	8.631953	-18.132586	
5.8800	-38.832660	-8.116320	10.129937	-88.254031	769.897707	9.786251	2.196070	-45.000000	45.000000	-45.000000	-6.652819	2423.212527	-2818.513685	28.632847	69.916967	369.249207	22.130880	17.064657	11.466480	18.849125	38.822165	-45.000000	-39.595775	-31.993121	-640.338994	1699.957669	134.859029	170.525189	727.251463	25.783340	8.515034	-18.124343	
5.8900	-38.704733	-7.952447	9.847440	-85.709218	769.429750	9.983646	2.015641	-45.000000	45.000000	-45.000000	-6.120884	2423.426322	-2818.582142	28.622179	69.786181	369.181126	23.345290	17.057268	11.299239	18.732058	38.717118	-45.000000	-39.295461	-31.265760	-640.395461	1699.859376	134.920184	170.208773	727.202369	26.468710	8.408128	-18.128718	
5.9000	-38.580242	-7.723486	9.499256	-83.380995	769.080854	10.178414	1.780813	-45.000000	45.000000	-45.000000	-5.485808	2423.647803	-2818.629181	28.594261	69.599035	369.107375	24.538588	17.050341	11.155543	18.638130	38.640627	-45.000000	-39.009356	-30.447499	-640.496737	1699.767400	135.015663	170.024764	727.168652	27.142414	8.313980	-18.143571	
5.9100	-38.456191	-7.510747	9.186022	-81.271841	768.830856	10.367886	1.560023	-45.000000	45.000000	-45.000000	-4.891995	2423.843811	-2818.672057	28.569665	69.370134	369.024571	25.636823	17.035260	11.023908	18.518297	38.591053	-45.000000	-38.739965	-29.673456	-640.609702	1699.691442	135.117754	169.959221	727.143013	27.772885	8.228190	-18.159817	
5.9200	-38.331965	-7.349474	8.948387	-79.379605	768.660853	10.549657	1.390523	-45.000000	45.000000	-45.000000	-4.426033	2424.008745	-2818.717194	28.566241	69.108775	368.934410	26.569429	17.012320	10.908534	18.364345	38.553921	-45.000000	-38.498630	-29.028009	-640.708599	1699.634248	135.187506	169.993309	727.119188	28.328930	8.153640	-18.173476	
5.9300	-38.211240	-7.243794	8.789398	-77.697494	768.553909	10.721802	1.279967	-45.000000	45.000000	-45.000000	-4.094979	2424.138728	-2818.764207	28.584191	68.819062	368.841294	27.284460	16.980947	10.816587	18.190396	38.521143	-45.000000	-38.289282	-28.524715	-640.786019	1699.594403	135.213666	170.117214	727.096666	28.783494	8.091661	-18.182812	
5.9400	-38.095923	-7.159609	8.663874	-76.215027	768.495737	10.883003	1.197988	-45.000000	45.000000	-45.000000	-3.837102	2424.254391	-2818.801036	28.611875	68.505410	368.749675	27.767904	16.947280	10.761785	18.037719	38.479477	-45.000000	-38.111199	-28.109750	-640.848887	1699.561728	135.202371	170.314752	727.073068	29.129174	8.046879	-18.191060	
5.9500	-37.985812	-7.105665	8.583010	-74.918905	768.474639	11.032518	1.145035	-45.000000	45.000000	-45.000000	-3.656864	2424.352927	-2818.829393	28.644712	68.186860	368.659862	28.022249	16.910335	10.738298	17.882037	38.439568	-45.000000	-37.962931	-27.778188	-640.909516	1699.532923	135.180975	170.561886	727.053191	29.364405	8.018070	-18.199771	
5.9600	-37.888484	-7.024461	8.474796	-73.793639	768.481300	11.170043	1.072794	-45.000000	45.000000	-45.000000	-3.448182	2424.460413	-2818.843395	28.663199	67.868454	368.576326	28.089604	16.878689	10.756079	17.776491	38.392835	-45.000000	-37.834213	-27.431086	-640.972035	1699.502767	135.155144	170.837230	727.024211	29.510608	8.007410	-18.210501	
5.9700	-37.801636	-6.918617	8.344881	-72.823721	768.508334	11.295396	0.981080	-45.000000	45.000000	-45.000000	-3.206541	2424.570368	-2818.844116	28.663755	67.566147	368.503120	28.012687	16.852715	10.802182	17.700188	38.349897	-45.000000	-37.719687	-27.059176	-641.042926	1699.470126	135.142375	171.117367	726.997593	29.588244	8.010299	-18.225597	
5.9800	-37.725206	-6.793966	8.196409	-71.993863	768.549929	11.408400	0.879713	-45.000000	45.000000	-45.000000	-2.938142	2424.673741	-2818.845445	28.657316	67.287957	368.436528	27.827162	16.830355	10.865442	17.650778	38.312789	-45.000000	-37.611137	-26.674903	-641.099751	1699.438759	135.123044	171.382914	726.967541	29.615822	8.020999	-18.240508	
5.9900	-37.654332	-6.676796	8.068176	-71.290969	768.601370	11.508700	0.792799	-45.000000	45.000000	-45.000000	-2.694345	2424.757338	-2818.843228	28.648487	67.047417	368.389653	27.553269	16.811881	10.929705	17.594235	38.286153	-45.000000	-37.511964	-26.325155	-641.149347	1699.411175	135.106553	171.617121	726.954765	29.601585	8.034461	-18.257554	
6.0000	-37.594624	-6.563621	7.950901	-70.703634	768.658831	11.595906	0.723045	-45.000000	45.000000	-45.000000	-2.471670	2424.816819	-2818.858050	28.646914	66.844171	368.349103	27.216593	16.793271	10.991697	17.544524	38.265283	-45.000000	-37.419612	-26.009484	-641.165369	1699.389333	135.061120	171.813287	726.942310	29.558415	8.045684	-18.269195	
6.0100	-37.540957	-6.456100	7.851163	-70.224288	768.718809	11.669494	0.665282	-45.000000	45.000000	-45.000000	-2.274822	2424.862981	-2818.868445	28.641528	66.683933	368.328317	26.842928	16.780040	11.046760	17.492450	38.249129	-45.000000	-37.338477	-25.729778	-641.182005	1699.374751	135.022648	171.968012	726.951756	29.497130	8.055750	-18.284107	
